<?xml version="1.0" encoding="UTF-8" standalone="no"?>
<!-- Created with Inkscape (http://www.inkscape.org/) -->

<svg
   width="210mm"
   height="297mm"
   viewBox="0 0 210 297"
   version="1.1"
   id="svg1"
   xml:space="preserve"
   inkscape:version="1.3.2 (091e20e, 2023-11-25)"
   sodipodi:docname="logo.svg"
   xmlns:inkscape="http://www.inkscape.org/namespaces/inkscape"
   xmlns:sodipodi="http://sodipodi.sourceforge.net/DTD/sodipodi-0.dtd"
   xmlns="http://www.w3.org/2000/svg"
   xmlns:svg="http://www.w3.org/2000/svg"><sodipodi:namedview
     id="namedview1"
     pagecolor="#ffffff"
     bordercolor="#000000"
     borderopacity="0.25"
     inkscape:showpageshadow="2"
     inkscape:pageopacity="0.0"
     inkscape:pagecheckerboard="0"
     inkscape:deskcolor="#d1d1d1"
     inkscape:document-units="mm"
     inkscape:zoom="0.51491302"
     inkscape:cx="397.15446"
     inkscape:cy="561.25984"
     inkscape:window-width="1536"
     inkscape:window-height="784"
     inkscape:window-x="0"
     inkscape:window-y="0"
     inkscape:window-maximized="1"
     inkscape:current-layer="layer1" /><defs
     id="defs1" /><g
     inkscape:label="Capa 1"
     inkscape:groupmode="layer"
     id="layer1"><path
       style="fill:#000000;stroke-width:0.970847"
       d="m 53.614444,149.35068 c -1.934056,-1.23087 -4.647562,-3.95038 -6.030013,-6.04333 l -2.513547,-3.80539 v -5.94675 -5.94675 l 2.431934,-3.9915 c 1.404019,-2.30441 4.558056,-4.97377 7.462102,-6.31541 l 5.030166,-2.3239 0.731233,-3.7363 c 0.913295,-4.66656 7.651332,-10.52369 13.268499,-11.533803 l 4.161723,-0.748398 1.353677,-5.153179 1.353677,-5.153189 4.616094,-4.424828 4.616094,-4.424819 5.857133,-1.571946 5.857144,-1.571946 5.35441,1.372749 c 6.17298,1.582606 10.91972,4.302542 12.52436,7.176603 l 1.11829,2.002962 -1.47129,1.738391 c -0.8092,0.956116 -10.37068,7.926557 -21.247709,15.489863 l -19.776442,13.75148 0.341574,12.90642 0.341574,12.90642 2.690093,0.36667 2.690094,0.36668 0.648023,-2.69538 c 0.356413,-1.48245 0.785688,-6.88701 0.953943,-12.01015 l 0.305919,-9.31479 20.649541,-14.23672 20.64954,-14.236737 4.67514,-0.02648 c 6.57095,-0.03732 12.62674,3.06601 16.26397,8.334497 l 3.10948,4.50404 0.59129,5.89871 0.59129,5.89871 4.90738,4.38788 4.90738,4.38788 0.46053,6.85892 0.46052,6.85893 -2.48523,3.79476 c -1.36688,2.08713 -4.2667,4.84697 -6.44404,6.13298 l -3.95881,2.3382 -9.71743,-0.31124 -9.71743,-0.31122 -0.60734,-16.86685 -0.60734,-16.86686 -6.73847,-4.43642 -6.73847,-4.43642 -2.06795,0.76067 c -3.50218,1.28822 -2.2225,4.41094 3.44547,8.40777 l 5.41868,3.82102 v 15.16343 15.16342 l -5.76972,-0.35489 -5.76972,-0.35487 -0.60734,-9.29186 -0.60734,-9.29186 -3.29143,-1.10445 -3.29143,-1.10446 -3.03364,1.32494 -3.033649,1.32495 -0.35566,9.07137 -0.35566,9.07137 -20.042203,0.29921 -20.042199,0.2992 z"
       id="path1"
       inkscape:transform-center-x="-0.28502146"
       inkscape:transform-center-y="-2.6826647" /></g></svg>
